# This file uses centimeters as units for non-parametric coordinates.

mtllib model_shoe_box.mtl
g default
v -1.551134 0.000000 3.141973
v 1.551134 0.000000 3.141973
v -1.551134 1.928300 3.141973
v 1.551134 1.928300 3.141973
v -1.551134 1.928300 -3.141973
v 1.551134 1.928300 -3.141973
v -1.551134 0.000000 -3.141973
v 1.551134 0.000000 -3.141973
vt 0.005044 0.311342
vt 0.498835 0.311342
vt 0.876433 0.622645
vt 0.876189 0.994201
vt 0.123567 0.993707
vt 0.123810 0.622151
vt 0.123810 0.622151
vt 0.123567 0.993707
vt 0.876189 0.994201
vt 0.876433 0.622645
vt 0.000000 0.000071
vt 1.000000 0.000071
vt 1.000000 0.306932
vt 0.000000 0.306932
vt 1.000000 0.000071
vt 0.000000 0.000071
vt 0.000000 0.306932
vt 1.000000 0.306932
vt 0.498835 0.618271
vt 0.005044 0.618271
vt 0.005044 0.618271
vt 0.498835 0.618271
vt 0.498835 0.311342
vt 0.005044 0.311342
vn -0.510843 -0.821850 0.252194
vn 0.510843 -0.821850 0.252194
vn 0.510843 0.821850 0.252194
vn -0.510843 0.821850 0.252194
vn 0.510843 0.821850 -0.252194
vn -0.510843 0.821850 -0.252194
vn 0.510843 -0.821850 -0.252194
vn -0.510843 -0.821850 -0.252194
s 1
g shoe_box_box shoe_box
usemtl lambert2SG
f 1/1/1 2/2/2 4/19/3 3/20/4
f 3/3/4 4/4/3 6/5/5 5/6/6
f 5/21/6 6/22/5 8/23/7 7/24/8
f 7/7/8 8/8/7 2/9/2 1/10/1
f 2/11/2 8/12/7 6/13/5 4/14/3
f 7/15/8 1/16/1 3/17/4 5/18/6
g default
v -1.626582 1.431301 3.220641
v 1.626582 1.431301 3.220641
v -1.626582 2.181279 3.220641
v 1.626582 2.181279 3.220641
v -1.626582 2.181279 -3.220641
v 1.626582 2.181279 -3.220641
v -1.626582 1.431301 -3.220641
v 1.626582 1.431301 -3.220641
vt -0.000944 0.001823
vt 0.000000 0.001823
vt 1.000944 0.001823
vt 1.000000 0.001823
vt 0.632351 0.130921
vt 0.255774 0.130921
vt 0.255774 0.247828
vt 0.632351 0.247828
vt 0.999966 0.383933
vt 1.000034 0.888982
vt 1.000000 0.118256
vt 0.000000 0.118256
vt 1.000944 0.118256
vt -0.000944 0.118256
vt 0.000034 0.889116
vt -0.000034 0.384067
vt -0.000034 0.384067
vt 0.000034 0.889116
vt 1.000034 0.888982
vt 0.999966 0.383933
vt 0.260544 0.247828
vt 0.639266 0.247828
vt 0.639266 0.130921
vt 0.260544 0.130921
vn -0.223214 -0.968229 0.112734
vn 0.223214 -0.968229 0.112734
vn 0.223214 0.968229 0.112734
vn -0.223214 0.968229 0.112734
vn 0.223214 0.968229 -0.112734
vn -0.223214 0.968229 -0.112734
vn 0.223214 -0.968229 -0.112734
vn -0.223214 -0.968229 -0.112734
s 1
g shoe_box shoe_box_cap
usemtl lambert3SG
f 9/29/9 10/30/10 12/31/11 11/32/12
f 11/33/12 12/34/11 14/39/13 13/40/14
f 13/45/14 14/46/13 16/47/15 15/48/16
f 15/41/16 16/42/15 10/43/10 9/44/9
f 10/26/10 16/28/15 14/35/13 12/36/11
f 15/25/16 9/27/9 11/37/12 13/38/14
