# This file uses centimeters as units for non-parametric coordinates.

mtllib model_pills.mtl
g default
v 0.866025 0.142742 -0.500000
v 0.500000 0.142742 -0.866025
v 0.000000 0.142742 -1.000000
v -0.500000 0.142742 -0.866025
v -0.866025 0.142742 -0.500000
v -1.000000 0.142742 0.000000
v -0.866025 0.142742 0.500000
v -0.500000 0.142742 0.866025
v 0.000000 0.142742 1.000000
v 0.500000 0.142742 0.866025
v 0.866025 0.142742 0.500000
v 1.000000 0.142742 0.000000
v 0.866025 3.552169 -0.500000
v 0.500000 3.552169 -0.866025
v 0.000000 3.552169 -1.000000
v -0.500000 3.552169 -0.866025
v -0.866025 3.552169 -0.500000
v -1.000000 3.552169 0.000000
v -0.866025 3.552169 0.500000
v -0.500000 3.552169 0.866025
v 0.000000 3.552169 1.000000
v 0.500000 3.552169 0.866025
v 0.866025 3.552169 0.500000
v 1.000000 3.552169 0.000000
v 0.000000 0.142742 0.000000
v 0.000000 3.552169 0.000000
vt 0.635316 0.078125
vt 0.578125 0.020934
vt 0.500000 0.000000
vt 0.421875 0.020934
vt 0.364684 0.078125
vt 0.343750 0.156250
vt 0.364684 0.234375
vt 0.421875 0.291566
vt 0.500000 0.312500
vt 0.578125 0.291566
vt 0.635316 0.234375
vt 0.656250 0.156250
vt 0.136763 0.312500
vt 0.197303 0.312500
vt 0.257842 0.312500
vt 0.318382 0.312500
vt 0.378921 0.312500
vt 0.439461 0.312500
vt 0.500000 0.312500
vt 0.560540 0.312500
vt 0.621079 0.312500
vt 0.681618 0.312500
vt 0.742158 0.312500
vt 0.802697 0.312500
vt 0.863237 0.312500
vt 0.136763 0.688440
vt 0.197303 0.688440
vt 0.257842 0.688440
vt 0.318382 0.688440
vt 0.378921 0.688440
vt 0.439461 0.688440
vt 0.500000 0.688440
vt 0.560540 0.688440
vt 0.621079 0.688440
vt 0.681618 0.688440
vt 0.742158 0.688440
vt 0.802697 0.688440
vt 0.863237 0.688440
vt 0.635316 0.765625
vt 0.578125 0.708434
vt 0.500000 0.687500
vt 0.421875 0.708434
vt 0.364684 0.765625
vt 0.343750 0.843750
vt 0.364684 0.921875
vt 0.421875 0.979066
vt 0.500000 1.000000
vt 0.578125 0.979066
vt 0.635316 0.921875
vt 0.656250 0.843750
vt 0.500000 0.150000
vt 0.500000 0.837500
vn 0.859630 -0.121308 -0.496307
vn 0.496307 -0.121308 -0.859630
vn 0.496307 0.121308 -0.859630
vn 0.859630 0.121308 -0.496307
vn 0.000000 -0.121308 -0.992615
vn 0.000000 0.121308 -0.992615
vn -0.496307 -0.121308 -0.859630
vn -0.496307 0.121308 -0.859630
vn -0.859630 -0.121308 -0.496307
vn -0.859630 0.121308 -0.496307
vn -0.992615 -0.121308 0.000000
vn -0.992615 0.121308 0.000000
vn -0.859630 -0.121308 0.496307
vn -0.859630 0.121308 0.496307
vn -0.496307 -0.121308 0.859630
vn -0.496307 0.121308 0.859630
vn 0.000000 -0.121308 0.992615
vn 0.000000 0.121308 0.992615
vn 0.496307 -0.121308 0.859630
vn 0.496307 0.121308 0.859630
vn 0.859630 -0.121308 0.496307
vn 0.859630 0.121308 0.496307
vn 0.992615 -0.121308 0.000000
vn 0.992615 0.121308 0.000000
vn 0.000000 -1.000000 0.000000
vn 0.000000 1.000000 0.000000
s 1
g pills_interior pills
usemtl lambert3SG
f 1/13/1 2/14/2 14/27/3 13/26/4
f 2/14/2 3/15/5 15/28/6 14/27/3
f 3/15/5 4/16/7 16/29/8 15/28/6
f 4/16/7 5/17/9 17/30/10 16/29/8
f 5/17/9 6/18/11 18/31/12 17/30/10
f 6/18/11 7/19/13 19/32/14 18/31/12
f 7/19/13 8/20/15 20/33/16 19/32/14
f 8/20/15 9/21/17 21/34/18 20/33/16
f 9/21/17 10/22/19 22/35/20 21/34/18
f 10/22/19 11/23/21 23/36/22 22/35/20
f 11/23/21 12/24/23 24/37/24 23/36/22
f 12/24/23 1/25/1 13/38/4 24/37/24
f 2/2/2 1/1/1 25/51/25
f 3/3/5 2/2/2 25/51/25
f 4/4/7 3/3/5 25/51/25
f 5/5/9 4/4/7 25/51/25
f 6/6/11 5/5/9 25/51/25
f 7/7/13 6/6/11 25/51/25
f 8/8/15 7/7/13 25/51/25
f 9/9/17 8/8/15 25/51/25
f 10/10/19 9/9/17 25/51/25
f 11/11/21 10/10/19 25/51/25
f 12/12/23 11/11/21 25/51/25
f 1/1/1 12/12/23 25/51/25
f 13/49/4 14/48/3 26/52/26
f 14/48/3 15/47/6 26/52/26
f 15/47/6 16/46/8 26/52/26
f 16/46/8 17/45/10 26/52/26
f 17/45/10 18/44/12 26/52/26
f 18/44/12 19/43/14 26/52/26
f 19/43/14 20/42/16 26/52/26
f 20/42/16 21/41/18 26/52/26
f 21/41/18 22/40/20 26/52/26
f 22/40/20 23/39/22 26/52/26
f 23/39/22 24/50/24 26/52/26
f 24/50/24 13/49/4 26/52/26
g default
v 1.101045 3.241298 -0.635689
v 0.635689 3.241298 -1.101045
v 0.000000 3.241298 -1.271378
v -0.635689 3.241298 -1.101045
v -1.101045 3.241298 -0.635689
v -1.271378 3.241298 0.000000
v -1.101045 3.241298 0.635689
v -0.635689 3.241298 1.101045
v 0.000000 3.241298 1.271378
v 0.635689 3.241298 1.101045
v 1.101045 3.241298 0.635689
v 1.271378 3.241298 0.000000
v 1.101045 3.964624 -0.635689
v 0.635689 3.964624 -1.101045
v 0.000000 3.964624 -1.271378
v -0.635689 3.964624 -1.101045
v -1.101045 3.964624 -0.635689
v -1.271378 3.964624 0.000000
v -1.101045 3.964624 0.635689
v -0.635689 3.964624 1.101045
v 0.000000 3.964624 1.271378
v 0.635689 3.964624 1.101045
v 1.101045 3.964624 0.635689
v 1.271378 3.964624 0.000000
v 0.000000 3.241298 0.000000
v 0.000000 3.964624 0.000000
vt 0.635316 0.317325
vt 0.578125 0.260133
vt 0.500000 0.239200
vt 0.421875 0.260133
vt 0.364684 0.317325
vt 0.343750 0.395450
vt 0.364684 0.473575
vt 0.421875 0.530766
vt 0.500000 0.551700
vt 0.578125 0.530766
vt 0.635316 0.473575
vt 0.656250 0.395450
vt 0.004359 0.551700
vt 0.086966 0.551700
vt 0.169573 0.551700
vt 0.252180 0.551700
vt 0.334786 0.551700
vt 0.417393 0.551700
vt 0.500000 0.551700
vt 0.582607 0.551700
vt 0.665214 0.551700
vt 0.747821 0.551700
vt 0.830428 0.551700
vt 0.913034 0.551700
vt 0.995641 0.551700
vt 0.004359 0.688440
vt 0.086966 0.688440
vt 0.169573 0.688440
vt 0.252180 0.688440
vt 0.334786 0.688440
vt 0.417393 0.688440
vt 0.500000 0.688440
vt 0.582607 0.688440
vt 0.665214 0.688440
vt 0.747821 0.688440
vt 0.830428 0.688440
vt 0.913034 0.688440
vt 0.995641 0.688440
vt 0.635316 0.765625
vt 0.578125 0.708434
vt 0.500000 0.687500
vt 0.421875 0.708434
vt 0.364684 0.765625
vt 0.343750 0.843750
vt 0.364684 0.921875
vt 0.421875 0.979066
vt 0.500000 1.000000
vt 0.578125 0.979066
vt 0.635316 0.921875
vt 0.656250 0.843750
vt 0.500000 0.389200
vt 0.500000 0.837500
vn 0.698689 -0.590857 -0.403388
vn 0.403388 -0.590857 -0.698689
vn 0.403388 0.590857 -0.698689
vn 0.698689 0.590857 -0.403388
vn 0.000000 -0.590857 -0.806776
vn 0.000000 0.590857 -0.806776
vn -0.403388 -0.590857 -0.698689
vn -0.403388 0.590857 -0.698689
vn -0.698689 -0.590857 -0.403388
vn -0.698689 0.590857 -0.403388
vn -0.806776 -0.590857 -0.000000
vn -0.806776 0.590857 0.000000
vn -0.698689 -0.590857 0.403388
vn -0.698689 0.590857 0.403388
vn -0.403388 -0.590857 0.698689
vn -0.403388 0.590857 0.698689
vn 0.000000 -0.590857 0.806776
vn 0.000000 0.590857 0.806776
vn 0.403388 -0.590857 0.698689
vn 0.403388 0.590857 0.698689
vn 0.698689 -0.590857 0.403388
vn 0.698689 0.590857 0.403388
vn 0.806776 -0.590857 0.000000
vn 0.806776 0.590857 0.000000
vn 0.000000 -1.000000 0.000000
vn 0.000000 1.000000 0.000000
s 1
g pills pills_cap
usemtl lambert5SG
f 27/65/27 28/66/28 40/79/29 39/78/30
f 28/66/28 29/67/31 41/80/32 40/79/29
f 29/67/31 30/68/33 42/81/34 41/80/32
f 30/68/33 31/69/35 43/82/36 42/81/34
f 31/69/35 32/70/37 44/83/38 43/82/36
f 32/70/37 33/71/39 45/84/40 44/83/38
f 33/71/39 34/72/41 46/85/42 45/84/40
f 34/72/41 35/73/43 47/86/44 46/85/42
f 35/73/43 36/74/45 48/87/46 47/86/44
f 36/74/45 37/75/47 49/88/48 48/87/46
f 37/75/47 38/76/49 50/89/50 49/88/48
f 38/76/49 27/77/27 39/90/30 50/89/50
f 28/54/28 27/53/27 51/103/51
f 29/55/31 28/54/28 51/103/51
f 30/56/33 29/55/31 51/103/51
f 31/57/35 30/56/33 51/103/51
f 32/58/37 31/57/35 51/103/51
f 33/59/39 32/58/37 51/103/51
f 34/60/41 33/59/39 51/103/51
f 35/61/43 34/60/41 51/103/51
f 36/62/45 35/61/43 51/103/51
f 37/63/47 36/62/45 51/103/51
f 38/64/49 37/63/47 51/103/51
f 27/53/27 38/64/49 51/103/51
f 39/101/30 40/100/29 52/104/52
f 40/100/29 41/99/32 52/104/52
f 41/99/32 42/98/34 52/104/52
f 42/98/34 43/97/36 52/104/52
f 43/97/36 44/96/38 52/104/52
f 44/96/38 45/95/40 52/104/52
f 45/95/40 46/94/42 52/104/52
f 46/94/42 47/93/44 52/104/52
f 47/93/44 48/92/46 52/104/52
f 48/92/46 49/91/48 52/104/52
f 49/91/48 50/102/50 52/104/52
f 50/102/50 39/101/30 52/104/52
g default
v 1.000293 0.000000 -0.577519
v 0.577519 0.000000 -1.000293
v 0.000000 0.000000 -1.155039
v -0.577519 0.000000 -1.000293
v -1.000293 0.000000 -0.577519
v -1.155039 0.000000 0.000000
v -1.000293 0.000000 0.577519
v -0.577519 0.000000 1.000293
v 0.000000 0.000000 1.155039
v 0.577519 0.000000 1.000293
v 1.000293 0.000000 0.577519
v 1.155039 0.000000 0.000000
v 1.000293 3.475626 -0.577519
v 0.577519 3.475626 -1.000293
v 0.000000 3.475626 -1.155039
v -0.577519 3.475626 -1.000293
v -1.000293 3.475626 -0.577519
v -1.155039 3.475626 0.000000
v -1.000293 3.475626 0.577519
v -0.577519 3.475626 1.000293
v 0.000000 3.475626 1.155039
v 0.577519 3.475626 1.000293
v 1.000293 3.475626 0.577519
v 1.155039 3.475626 0.000000
v 0.000000 0.000000 0.000000
v 0.000000 3.475626 0.000000
vt 0.635316 0.078125
vt 0.578125 0.020934
vt 0.500000 0.000000
vt 0.421875 0.020934
vt 0.364684 0.078125
vt 0.343750 0.156250
vt 0.364684 0.234375
vt 0.421875 0.291566
vt 0.500000 0.312500
vt 0.578125 0.291566
vt 0.635316 0.234375
vt 0.656250 0.156250
vt 0.136763 0.312500
vt 0.197303 0.312500
vt 0.257842 0.312500
vt 0.318382 0.312500
vt 0.378921 0.312500
vt 0.439461 0.312500
vt 0.500000 0.312500
vt 0.560540 0.312500
vt 0.621079 0.312500
vt 0.681618 0.312500
vt 0.742158 0.312500
vt 0.802697 0.312500
vt 0.863237 0.312500
vt 0.136763 0.688440
vt 0.197303 0.688440
vt 0.257842 0.688440
vt 0.318382 0.688440
vt 0.378921 0.688440
vt 0.439461 0.688440
vt 0.500000 0.688440
vt 0.560540 0.688440
vt 0.621079 0.688440
vt 0.681618 0.688440
vt 0.742158 0.688440
vt 0.802697 0.688440
vt 0.863237 0.688440
vt 0.635316 0.765625
vt 0.578125 0.708434
vt 0.500000 0.687500
vt 0.421875 0.708434
vt 0.364684 0.765625
vt 0.343750 0.843750
vt 0.364684 0.921875
vt 0.421875 0.979066
vt 0.500000 1.000000
vt 0.578125 0.979066
vt 0.635316 0.921875
vt 0.656250 0.843750
vt 0.500000 0.150000
vt 0.500000 0.837500
vn 0.857841 -0.137160 -0.495274
vn 0.495274 -0.137160 -0.857841
vn 0.495274 0.137160 -0.857841
vn 0.857841 0.137160 -0.495274
vn 0.000000 -0.137160 -0.990549
vn 0.000000 0.137160 -0.990549
vn -0.495274 -0.137160 -0.857841
vn -0.495274 0.137160 -0.857841
vn -0.857841 -0.137160 -0.495274
vn -0.857841 0.137160 -0.495274
vn -0.990549 -0.137160 0.000000
vn -0.990549 0.137160 0.000000
vn -0.857841 -0.137160 0.495274
vn -0.857841 0.137160 0.495274
vn -0.495274 -0.137160 0.857841
vn -0.495274 0.137160 0.857841
vn 0.000000 -0.137160 0.990549
vn 0.000000 0.137160 0.990549
vn 0.495274 -0.137160 0.857841
vn 0.495274 0.137160 0.857841
vn 0.857841 -0.137160 0.495274
vn 0.857841 0.137160 0.495274
vn 0.990549 -0.137160 0.000000
vn 0.990549 0.137160 -0.000000
vn 0.000000 -1.000000 0.000000
vn 0.000000 1.000000 0.000000
s 1
g pills pills_exterior
usemtl lambert4SG
f 53/117/53 54/118/54 66/131/55 65/130/56
f 54/118/54 55/119/57 67/132/58 66/131/55
f 55/119/57 56/120/59 68/133/60 67/132/58
f 56/120/59 57/121/61 69/134/62 68/133/60
f 57/121/61 58/122/63 70/135/64 69/134/62
f 58/122/63 59/123/65 71/136/66 70/135/64
f 59/123/65 60/124/67 72/137/68 71/136/66
f 60/124/67 61/125/69 73/138/70 72/137/68
f 61/125/69 62/126/71 74/139/72 73/138/70
f 62/126/71 63/127/73 75/140/74 74/139/72
f 63/127/73 64/128/75 76/141/76 75/140/74
f 64/128/75 53/129/53 65/142/56 76/141/76
f 54/106/54 53/105/53 77/155/77
f 55/107/57 54/106/54 77/155/77
f 56/108/59 55/107/57 77/155/77
f 57/109/61 56/108/59 77/155/77
f 58/110/63 57/109/61 77/155/77
f 59/111/65 58/110/63 77/155/77
f 60/112/67 59/111/65 77/155/77
f 61/113/69 60/112/67 77/155/77
f 62/114/71 61/113/69 77/155/77
f 63/115/73 62/114/71 77/155/77
f 64/116/75 63/115/73 77/155/77
f 53/105/53 64/116/75 77/155/77
f 65/153/56 66/152/55 78/156/78
f 66/152/55 67/151/58 78/156/78
f 67/151/58 68/150/60 78/156/78
f 68/150/60 69/149/62 78/156/78
f 69/149/62 70/148/64 78/156/78
f 70/148/64 71/147/66 78/156/78
f 71/147/66 72/146/68 78/156/78
f 72/146/68 73/145/70 78/156/78
f 73/145/70 74/144/72 78/156/78
f 74/144/72 75/143/74 78/156/78
f 75/143/74 76/154/76 78/156/78
f 76/154/76 65/153/56 78/156/78
